<?xml version="1.0" encoding="iso-8859-1"?>
<!-- Generator: Adobe Illustrator 21.0.0, SVG Export Plug-In . SVG Version: 6.00 Build 0)  -->
<svg xmlns="http://www.w3.org/2000/svg" xmlns:xlink="http://www.w3.org/1999/xlink" version="1.1" id="Capa_1" x="0px" y="0px" viewBox="0 0 512 512" style="enable-background:new 0 0 512 512;" xml:space="preserve" width="512" height="512">
<g>
	<circle style="fill:#C4C8D1;" cx="256" cy="256" r="256"/>
	<path style="fill:#B4B7BF;" d="M258.93,511.963C398.963,510.39,512,396.405,512,256c0-2.257-0.035-4.506-0.089-6.749   C508.358,111.959,396.711,1.584,258.928,0.037C369.973,28.892,452.182,132.531,452.182,256   C452.182,379.468,369.974,483.107,258.93,511.963z"/>
	<path style="fill:#787780;" d="M369.282,26.385c-17.424,9.549-29.241,28.056-29.241,49.327c0,31.046,25.168,56.214,56.214,56.214   c26.185,0,48.188-17.903,54.436-42.137C428.243,63.518,400.571,41.851,369.282,26.385z"/>
	<path style="fill:#67666E;" d="M419.502,126.883c15.284-6.953,26.916-20.531,31.187-37.083c-0.222-0.26-0.446-0.518-0.669-0.777   c-1.024-1.189-2.057-2.37-3.103-3.539c-0.391-0.437-0.784-0.871-1.178-1.305c-1.016-1.121-2.042-2.234-3.077-3.337   c-0.424-0.451-0.849-0.901-1.276-1.349c-1.027-1.078-2.064-2.146-3.109-3.207c-0.441-0.447-0.881-0.894-1.325-1.338   c-1.055-1.054-2.122-2.097-3.195-3.134c-0.444-0.428-0.885-0.859-1.332-1.284c-1.106-1.053-2.226-2.092-3.351-3.125   c-0.423-0.388-0.842-0.78-1.267-1.165c-1.198-1.085-2.411-2.155-3.63-3.218c-0.363-0.316-0.721-0.638-1.085-0.952   c-1.393-1.202-2.803-2.385-4.222-3.557c-0.196-0.162-0.388-0.328-0.585-0.489c-3.313-2.719-6.695-5.357-10.144-7.909   c-0.014-0.01-0.028-0.02-0.042-0.03c-1.665-1.232-3.347-2.443-5.043-3.635c-0.383-0.269-0.772-0.53-1.157-0.797   c-1.333-0.926-2.67-1.845-4.021-2.746c-0.53-0.354-1.067-0.698-1.6-1.048c-1.217-0.799-2.438-1.593-3.669-2.372   c-0.612-0.387-1.229-0.765-1.844-1.147c-1.168-0.725-2.34-1.444-3.52-2.151c-0.663-0.396-1.33-0.786-1.996-1.177   c-1.146-0.672-2.296-1.337-3.453-1.991c-0.702-0.397-1.406-0.789-2.112-1.179c-1.137-0.628-2.278-1.249-3.425-1.86   c-0.73-0.389-1.462-0.776-2.196-1.158c-1.138-0.592-2.282-1.174-3.43-1.75c-0.454-0.228-0.909-0.453-1.364-0.679   c-7.983,4.378-14.778,10.644-19.806,18.188C378.006,66.619,401.937,94.657,419.502,126.883z"/>
	<circle style="fill:#787780;" cx="434.861" cy="320.218" r="29.699"/>
	<path style="fill:#67666E;" d="M434.861,290.519c-2.526,0-4.978,0.318-7.319,0.911c21.678,12.634,21.724,44.927,0.002,57.576   c2.341,0.593,4.792,0.911,7.317,0.911c16.402,0,29.699-13.297,29.699-29.699C464.56,303.816,451.263,290.519,434.861,290.519z"/>
	<circle style="fill:#787780;" cx="296.782" cy="209.298" r="40.782"/>
	<path style="fill:#67666E;" d="M296.782,168.516c-2.36,0-4.67,0.212-6.921,0.597c14.446,7.591,24.304,22.732,24.304,40.185   c0,17.453-9.858,32.594-24.304,40.185c2.251,0.385,4.56,0.597,6.921,0.597c22.523,0,40.782-18.259,40.782-40.782   S319.305,168.516,296.782,168.516z"/>
	<circle style="fill:#787780;" cx="159.616" cy="95.361" r="36.565"/>
	<path style="fill:#67666E;" d="M159.616,58.796c-3.555,0-6.987,0.517-10.237,1.463c12.175,6.964,20.382,20.071,20.382,35.102   c0,15.031-8.208,28.138-20.382,35.102c3.249,0.946,6.682,1.463,10.236,1.463c20.194,0,36.565-16.371,36.565-36.565   C196.182,75.167,179.811,58.796,159.616,58.796z"/>
	<circle style="fill:#787780;" cx="172.433" cy="344.632" r="72.17"/>
	<path style="fill:#67666E;" d="M172.433,272.462c-4.922,0-9.727,0.497-14.372,1.436c26.953,12.16,45.724,39.244,45.724,70.734   s-18.771,58.574-45.724,70.734c4.645,0.939,9.451,1.436,14.372,1.436c39.858,0,72.17-32.312,72.17-72.17   S212.291,272.462,172.433,272.462z"/>
</g>















</svg>
